 <?xml version="1.0" encoding="UTF-8"?>
<svg width="800" height="500" viewBox="0 0 800 500" xmlns="http://www.w3.org/2000/svg">
  <style>
    .box { stroke: #333; stroke-width: 2; }
    .frontend { fill: #3498db; }
    .backend { fill: #2ecc71; }
    .database { fill: #e74c3c; }
    .ai { fill: #9b59b6; }
    .box-text { fill: white; font-family: Arial, sans-serif; font-weight: bold; text-anchor: middle; }
    .box-subtext { fill: white; font-family: Arial, sans-serif; font-size: 12px; text-anchor: middle; }
    .arrow { stroke: #7f8c8d; stroke-width: 2; fill: none; marker-end: url(#arrowhead); }
    .dotted { stroke-dasharray: 5,5; }
    .layer-bg { fill: #ecf0f1; stroke: #bdc3c7; stroke-width: 2; rx: 10; ry: 10; }
    .layer-title { fill: #7f8c8d; font-family: Arial, sans-serif; font-size: 14px; font-weight: bold; }
  </style>
  
  <defs>
    <marker id="arrowhead" markerWidth="10" markerHeight="7" refX="9" refY="3.5" orient="auto">
      <polygon points="0 0, 10 3.5, 0 7" fill="#7f8c8d" />
    </marker>
  </defs>
  
  <!-- Layers -->
  <rect class="layer-bg" x="50" y="50" width="700" height="100" />
  <text class="layer-title" x="70" y="70">客户端层</text>
  
  <rect class="layer-bg" x="50" y="170" width="700" height="80" />
  <text class="layer-title" x="70" y="190">API网关层</text>
  
  <rect class="layer-bg" x="50" y="270" width="700" height="100" />
  <text class="layer-title" x="70" y="290">服务层</text>
  
  <rect class="layer-bg" x="50" y="390" width="700" height="80" />
  <text class="layer-title" x="70" y="410">数据层</text>
  
  <!-- Frontend Layer -->
  <rect class="box frontend" x="100" y="80" width="120" height="50" rx="5" ry="5" />
  <text class="box-text" x="160" y="110">用户移动端</text>
  
  <rect class="box frontend" x="340" y="80" width="120" height="50" rx="5" ry="5" />
  <text class="box-text" x="400" y="110">摄影师后台</text>
  
  <rect class="box frontend" x="580" y="80" width="120" height="50" rx="5" ry="5" />
  <text class="box-text" x="640" y="110">管理平台</text>
  
  <!-- API Gateway Layer -->
  <rect class="box backend" x="250" y="185" width="300" height="50" rx="5" ry="5" />
  <text class="box-text" x="400" y="215">API网关</text>
  <text class="box-subtext" x="400" y="232">认证 · 授权 · 路由 · 限流</text>
  
  <!-- Services Layer -->
  <rect class="box backend" x="100" y="300" width="100" height="50" rx="5" ry="5" />
  <text class="box-text" x="150" y="330">用户服务</text>
  
  <rect class="box backend" x="220" y="300" width="100" height="50" rx="5" ry="5" />
  <text class="box-text" x="270" y="330">照片服务</text>
  
  <rect class="box backend" x="340" y="300" width="100" height="50" rx="5" ry="5" />
  <text class="box-text" x="390" y="330">交易服务</text>
  
  <rect class="box ai" x="580" y="300" width="120" height="50" rx="5" ry="5" />
  <text class="box-text" x="640" y="322">AI服务</text>
  <text class="box-subtext" x="640" y="339">图像识别 · 骑行者匹配</text>
  
  <!-- Data Layer -->
  <rect class="box database" x="100" y="405" width="120" height="50" rx="5" ry="5" />
  <text class="box-text" x="160" y="435">PostgreSQL</text>
  
  <rect class="box database" x="340" y="405" width="120" height="50" rx="5" ry="5" />
  <text class="box-text" x="400" y="435">Redis 缓存</text>
  
  <rect class="box database" x="580" y="405" width="120" height="50" rx="5" ry="5" />
  <text class="box-text" x="640" y="435">MinIO 对象存储</text>
  
  <!-- Connecting Arrows -->
  <!-- Frontend to API Gateway -->
  <path class="arrow" d="M160,130 L160,185 L250,185" />
  <path class="arrow" d="M400,130 L400,185" />
  <path class="arrow" d="M640,130 L640,185 L550,185" />
  
  <!-- API Gateway to Services -->
  <path class="arrow" d="M250,235 L150,235 L150,300" />
  <path class="arrow" d="M330,235 L270,235 L270,300" />
  <path class="arrow" d="M470,235 L390,235 L390,300" />
  <path class="arrow" d="M550,235 L640,235 L640,300" />
  
  <!-- Services to Data -->
  <path class="arrow" d="M150,350 L150,405" />
  <path class="arrow" d="M270,350 L270,375 L160,375 L160,405" />
  <path class="arrow" d="M390,350 L390,405" />
  <path class="arrow" d="M640,350 L640,405" />
  
  <!-- Service to Service Communication -->
  <path class="arrow dotted" d="M200,325 L220,325" />
  <path class="arrow dotted" d="M320,325 L340,325" />
  <path class="arrow dotted" d="M440,325 L580,325" />
</svg>